# File created by Blade
# Date/Time:  Wed Sep 24 20:21:23 2014
# Frame Rate: 120.000 fps
#------------------------------------------------------
:FULLY-SPECIFIED
:DEGREES
505
root -7.358578 33.130867 -4.181284 6.517172 19.195512 35.957096
Spine 9.798905 -22.146620 -42.566388
Head -5.742402 -4.707817 21.800153
LeftShoulder 9.375197 -26.626418 29.507321
LeftArm 134.472848 -69.060303 -154.509793
LeftForeArm -13.418839 -0.000000 47.539064
LeftHand -15.135539 -0.000000 -33.969515
LeftHandThumb1 -26.253704 0.000000 33.147579
RightShoulder -13.332775 20.376468 -27.684547
RightArm -18.970854 4.442156 23.052427
RightForeArm -22.733479 -0.000000 11.965413
RightHand -9.455398 0.000000 8.388074
RightHandThumb1 -24.326973 -0.000000 -32.862282
LeftUpLeg -148.731840 27.727231 -32.693713
LeftLeg 4.807571 -0.000000 -0.000000
LeftFoot 41.278702 22.320741 -8.158948
LeftToeBase 9.673838 -0.000000 -0.000000
RightUpLeg -6.547994 -4.654489 -27.182190
RightLeg 36.478742 -0.000000 -0.000000
RightFoot -22.423033 -30.496828 -5.436659
RightToeBase 0.663751 -0.000000 -0.000000
506
root -7.376725 33.128506 -4.161208 6.525290 19.294059 35.848429
Spine 9.745574 -22.198680 -42.558675
Head -5.680452 -4.847294 21.966340
LeftShoulder 9.344468 -26.693348 29.513080
LeftArm 134.335866 -69.115199 -154.393292
LeftForeArm -13.592197 -0.000000 47.615055
LeftHand -15.331278 -0.000000 -34.042609
LeftHandThumb1 -26.253704 0.000000 33.147579
RightShoulder -13.389614 20.343501 -27.800839
RightArm -18.848229 4.558930 22.729742
RightForeArm -22.883061 -0.000000 12.031642
RightHand -9.751272 -0.000000 8.184028
RightHandThumb1 -24.326973 -0.000000 -32.862282
LeftUpLeg -148.754562 27.692503 -32.722323
LeftLeg 4.715975 -0.000000 -0.000000
LeftFoot 41.267734 22.222723 -8.199903
LeftToeBase 9.755145 -0.000000 -0.000000
RightUpLeg -6.467333 -4.702636 -27.019822
RightLeg 36.382834 -0.000000 -0.000000
RightFoot -22.399998 -30.522022 -5.478737
RightToeBase 0.688662 -0.000000 -0.000000
507
root -7.392568 33.125727 -4.145445 6.523658 19.373007 35.737660
Spine 9.697120 -22.228644 -42.531910
Head -5.608644 -4.965265 22.103995
LeftShoulder 9.320163 -26.712571 29.497293
LeftArm 134.189691 -69.131056 -154.248107
LeftForeArm -13.466794 -0.000000 47.648871
LeftHand -15.199661 -0.000000 -34.049644
LeftHandThumb1 -26.253704 0.000000 33.147579
RightShoulder -13.460611 20.350923 -27.897641
RightArm -18.689081 4.517296 22.427510
RightForeArm -22.692665 -0.000000 12.041323
RightHand -9.699593 -0.000000 8.015962
RightHandThumb1 -24.326973 -0.000000 -32.862282
LeftUpLeg -148.744783 27.730265 -32.705498
LeftLeg 4.617947 -0.000000 -0.000000
LeftFoot 41.216665 22.260782 -8.378448
LeftToeBase 10.111756 -0.000000 -0.000000
RightUpLeg -6.413938 -4.707628 -26.859995
RightLeg 36.321657 -0.000000 -0.000000
RightFoot -22.458045 -30.506788 -5.375103
RightToeBase 0.686524 -0.000000 -0.000000
508
root -7.409496 33.121766 -4.133133 6.539848 19.476806 35.624242
Spine 9.667069 -22.279141 -42.499128
Head -5.560669 -5.069249 22.222229
LeftShoulder 9.303788 -26.728565 29.500392
LeftArm 134.200985 -69.120606 -154.274005
LeftForeArm -13.564071 0.000000 47.690329
LeftHand -15.373010 -0.000000 -34.040015
LeftHandThumb1 -26.253704 0.000000 33.147579
RightShoulder -13.560619 20.363933 -28.074005
RightArm -18.491718 4.420117 22.257984
RightForeArm -22.616382 0.000000 11.958317
RightHand -9.837815 0.000000 7.382085
RightHandThumb1 -24.326973 -0.000000 -32.862282
LeftUpLeg -148.703991 27.758929 -32.644463
LeftLeg 4.501912 -0.000000 -0.000000
LeftFoot 41.409365 22.220847 -8.309235
LeftToeBase 9.785783 -0.000000 -0.000000
RightUpLeg -6.371166 -4.750474 -26.701122
RightLeg 36.272518 -0.000000 -0.000000
RightFoot -22.430482 -30.517795 -5.444404
RightToeBase 0.732274 -0.000000 -0.000000
509
root -7.426827 33.118469 -4.122599 6.560496 19.588511 35.517134
Spine 9.646089 -22.361420 -42.473845
Head -5.475576 -5.153416 22.297914
LeftShoulder 9.284395 -26.649007 29.490714
LeftArm 134.259979 -69.077174 -154.319195
LeftForeArm -13.525638 -0.000000 47.744459
LeftHand -15.379776 -0.000000 -34.160344
LeftHandThumb1 -26.253704 0.000000 33.147579
RightShoulder -13.672267 20.347458 -28.193149
RightArm -18.204723 4.305412 22.068925
RightForeArm -22.496745 -0.000000 11.857813
RightHand -8.881199 -0.000000 7.703953
RightHandThumb1 -24.326973 -0.000000 -32.862282
LeftUpLeg -148.659523 27.784714 -32.576792
LeftLeg 4.426145 -0.000000 -0.000000
LeftFoot 41.448628 22.275511 -8.435412
LeftToeBase 9.619387 -0.000000 -0.000000
RightUpLeg -6.340780 -4.840593 -26.547248
RightLeg 36.231614 -0.000000 -0.000000
RightFoot -22.396684 -30.519534 -5.487704
RightToeBase 0.700208 -0.000000 -0.000000
510
root -7.444055 33.117313 -4.111664 6.595951 19.674504 35.417070
Spine 9.562731 -22.429810 -42.429466
Head -5.297497 -5.258782 22.307197
LeftShoulder 9.291756 -26.578185 29.415778
LeftArm 134.202555 -69.074868 -154.216519
LeftForeArm -13.433575 -0.000000 47.774055
LeftHand -15.369567 -0.000000 -34.037066
LeftHandThumb1 -26.253704 0.000000 33.147579
RightShoulder -13.780586 20.317372 -28.288459
RightArm -17.890531 4.233176 21.788887
RightForeArm -22.612148 -0.000000 11.731049
RightHand -7.894374 0.000000 8.322013
RightHandThumb1 -24.326973 -0.000000 -32.862282
LeftUpLeg -148.642871 27.858213 -32.508418
LeftLeg 4.401378 -0.000000 -0.000000
LeftFoot 41.430294 22.273775 -8.483027
LeftToeBase 9.865268 -0.000000 -0.000000
RightUpLeg -6.325489 -4.962159 -26.414572
RightLeg 36.175131 -0.000000 -0.000000
RightFoot -22.379022 -30.443122 -5.514284
RightToeBase 0.681771 -0.000000 -0.000000
511
root -7.461315 33.114886 -4.102273 6.649024 19.742783 35.327948
Spine 9.471242 -22.483648 -42.410924
Head -5.140401 -5.379979 22.377843
LeftShoulder 9.336657 -26.572084 29.369570
LeftArm 134.216728 -69.153678 -154.208513
LeftForeArm -13.326574 0.000000 47.820630
LeftHand -15.458419 -0.000000 -34.105241
LeftHandThumb1 -26.253704 0.000000 33.147579
RightShoulder -13.864628 20.304509 -28.429537
RightArm -17.715691 4.173522 21.619457
RightForeArm -22.650754 -0.000000 11.757293
RightHand -7.820716 -0.000000 8.296821
RightHandThumb1 -24.326973 -0.000000 -32.862282
LeftUpLeg -148.624748 27.974610 -32.422079
LeftLeg 4.378045 -0.000000 -0.000000
LeftFoot 41.414472 22.311030 -8.499903
LeftToeBase 10.218995 -0.000000 -0.000000
RightUpLeg -6.361370 -5.051995 -26.279610
RightLeg 36.153416 -0.000000 -0.000000
RightFoot -22.363441 -30.433717 -5.449096
RightToeBase 0.631036 -0.000000 -0.000000
512
root -7.478479 33.114245 -4.095640 6.721139 19.805699 35.274213
Spine 9.376653 -22.557636 -42.449842
Head -4.948464 -5.475022 22.483325
LeftShoulder 9.378589 -26.543218 29.346597
LeftArm 134.255302 -69.226322 -154.206875
LeftForeArm -13.291077 -0.000000 47.839367
LeftHand -15.466117 -0.000000 -34.096289
LeftHandThumb1 -26.253704 0.000000 33.147579
RightShoulder -13.931948 20.273992 -28.532398
RightArm -17.495452 4.118138 21.457161
RightForeArm -22.621165 -0.000000 11.733021
RightHand -7.870804 -0.000000 8.381783
RightHandThumb1 -24.326973 -0.000000 -32.862282
LeftUpLeg -148.602996 28.086581 -32.369721
LeftLeg 4.366534 -0.000000 -0.000000
LeftFoot 41.442912 22.248418 -8.415243
LeftToeBase 10.136208 -0.000000 -0.000000
RightUpLeg -6.408043 -5.083631 -26.175118
RightLeg 36.142016 -0.000000 -0.000000
RightFoot -22.302399 -30.450641 -5.497281
RightToeBase 0.653324 -0.000000 -0.000000
513
root -7.497945 33.114141 -4.092763 6.820417 19.860717 35.228013
Spine 9.268898 -22.643500 -42.507262
Head -4.777887 -5.614412 22.611366
LeftShoulder 9.424261 -26.563578 29.328327
LeftArm 134.214888 -69.332710 -154.120394
LeftForeArm -13.217710 -0.000000 47.812215
LeftHand -15.426161 -0.000000 -34.087952
LeftHandThumb1 -26.253704 0.000000 33.147579
RightShoulder -13.976283 20.326843 -28.584871
RightArm -17.341374 3.965709 21.243732
RightForeArm -22.513264 -0.000000 11.761824
RightHand -7.922051 -0.000000 8.625257
RightHandThumb1 -24.326973 -0.000000 -32.862282
LeftUpLeg -148.620257 28.129612 -32.362192
LeftLeg 4.369483 -0.000000 -0.000000
LeftFoot 41.438622 22.242489 -8.390320
LeftToeBase 10.103620 -0.000000 -0.000000
RightUpLeg -6.498985 -5.104510 -26.064983
RightLeg 36.139595 -0.000000 -0.000000
RightFoot -22.241059 -30.507173 -5.482167
RightToeBase 0.620297 -0.000000 -0.000000
514
root -7.516663 33.112738 -4.090875 6.928255 19.898462 35.191357
Spine 9.157178 -22.729868 -42.561198
Head -4.661041 -5.750263 22.719004
LeftShoulder 9.425368 -26.482228 29.308052
LeftArm 134.169574 -69.332935 -154.013554
LeftForeArm -13.148733 -0.000000 47.808139
LeftHand -15.365488 -0.000000 -34.110320
LeftHandThumb1 -26.253704 0.000000 33.147579
RightShoulder -14.014204 20.280722 -28.620922
RightArm -17.142161 3.963667 21.024123
RightForeArm -22.554145 -0.000000 11.755416
RightHand -7.864252 0.000000 8.895280
RightHandThumb1 -24.326973 -0.000000 -32.862282
LeftUpLeg -148.641026 28.215752 -32.354842
LeftLeg 4.369934 -0.000000 -0.000000
LeftFoot 41.537189 22.168070 -8.370693
LeftToeBase 9.654842 -0.000000 -0.000000
RightUpLeg -6.609052 -5.020656 -25.948542
RightLeg 36.152097 -0.000000 -0.000000
RightFoot -22.185273 -30.651753 -5.422563
RightToeBase 0.587347 -0.000000 -0.000000
515
root -7.532872 33.114347 -4.090373 7.032155 19.948936 35.201189
Spine 9.110302 -22.819350 -42.693696
Head -4.623082 -5.835263 22.907380
LeftShoulder 9.398775 -26.494484 29.346699
LeftArm 134.002092 -69.460389 -153.824662
LeftForeArm -13.090944 -0.000000 47.797134
LeftHand -15.302242 -0.000000 -34.011834
LeftHandThumb1 -26.253704 0.000000 33.147579
RightShoulder -14.067811 20.390354 -28.650407
RightArm -16.995423 3.811556 20.792979
RightForeArm -22.536773 -0.000000 11.745884
RightHand -7.857210 -0.000000 9.126894
RightHandThumb1 -24.326973 -0.000000 -32.862282
LeftUpLeg -148.584905 28.346725 -32.326203
LeftLeg 4.344190 -0.000000 -0.000000
LeftFoot 41.472769 22.216474 -8.502315
LeftToeBase 9.801354 -0.000000 -0.000000
RightUpLeg -6.671661 -5.072067 -25.905645
RightLeg 36.123758 -0.000000 -0.000000
RightFoot -22.126110 -30.689606 -5.456925
RightToeBase 0.570763 -0.000000 -0.000000
